HIERARCHY
ROOT simHips
{
  OFFSET -226.02 92.1849 -12.4204
  CHANNELS 6 Xposition Yposition Zposition Zrotation Xrotation Yrotation
  JOINT simSpine
  {
    OFFSET -0.000355721 21.3001 -0.016921
    CHANNELS 3 Zrotation Xrotation Yrotation
    JOINT simLeftArm
    {
      OFFSET 13.5181 21.3012 0
      CHANNELS 3 Zrotation Xrotation Yrotation
      JOINT simLeftForeArm
      {
        OFFSET 24.5783 0 0
        CHANNELS 3 Zrotation Xrotation Yrotation
        JOINT simLeftHand
        {
          OFFSET 24.5783 0 0
          CHANNELS 3 Zrotation Xrotation Yrotation
          End Site
          {
            OFFSET 7.32568 1.52588e-05 0.0169305
          }
        }
      }
    }
    JOINT simHead
    {
      OFFSET 0 27.4458 -0.00489235
      CHANNELS 3 Zrotation Xrotation Yrotation
      End Site
      {
        OFFSET 0 0 0
      }
    }
    JOINT simRightArm
    {
      OFFSET -13.5174 21.3012 0
      CHANNELS 3 Zrotation Xrotation Yrotation
      JOINT simRightForeArm
      {
        OFFSET -24.5783 0 0
        CHANNELS 3 Zrotation Xrotation Yrotation
        JOINT simRightHand
        {
          OFFSET -24.5783 0 0
          CHANNELS 3 Zrotation Xrotation Yrotation
          End Site
          {
            OFFSET -7.32568 1.52588e-05 0.0169305
          }
        }
      }
    }
  }
  JOINT simRightUpLeg
  {
    OFFSET -8.44614 -9.41038 0.835684
    CHANNELS 3 Zrotation Xrotation Yrotation
    JOINT simRightLeg
    {
      OFFSET 0 -40.9639 0
      CHANNELS 3 Zrotation Xrotation Yrotation
      JOINT simRightFoot
      {
        OFFSET 0 -40.9639 0
        CHANNELS 3 Zrotation Xrotation Yrotation
        End Site
        {
          OFFSET 0.50614 -9.67405 14.6709
        }
      }
    }
  }
  JOINT simLeftUpLeg
  {
    OFFSET 8.44614 -9.41038 0.835684
    CHANNELS 3 Zrotation Xrotation Yrotation
    JOINT simLeftLeg
    {
      OFFSET 0 -40.9639 0
      CHANNELS 3 Zrotation Xrotation Yrotation
      JOINT simLeftFoot
      {
        OFFSET 0 -40.9639 0
        CHANNELS 3 Zrotation Xrotation Yrotation
        End Site
        {
          OFFSET -0.50614 -9.67405 14.6709
        }
      }
    }
  }
}
MOTION
Frames:	17
Frame Time:	0.0333333
35.648 94.051 7.17657 10.1977 -2.89537 79.5182 3.27472 13.5907 -15.9313 -18.6802 -37.3859 -3.76497 43.5232 -21.9119 -61.74 1.2125 -49.0523 -24.9524 13.4685 0.963427 12.6728 62.1585 -24.8173 -13.0765 -18.1322 -12.7901 61.3207 4.63451 -10.289 15.7878 -13.1503 -20.9624 -0.892783 2.22679 50.1011 -1.55226 10.8977 -4.70186 -0.630762 20.1764 -3.54859 10.8365 -3.62647 35.8075 1.27491 -5.27886 -15.0479 7.54741 
31.827 96.3217 7.98898 6.34883 -2.18986 78.9433 1.62325 15.9775 -11.7766 -7.98321 -48.0543 23.4993 44.6183 -23.2881 -63.808 6.12066 -48.6601 -18.3048 16.7919 -15.5252 11.5595 46.4659 -32.7465 -21.9703 -20.1556 -15.1613 70.8551 6.96437 -11.4007 16.538 -9.095 -20.0381 4.96358 1.32002 35.9551 -0.683007 9.58587 -1.5315 -8.20581 18.6768 -5.39967 11.6666 -2.00825 25.225 0.488501 -2.38014 -5.6217 9.98568 
26.7558 98.439 8.6503 4.8092 -3.35991 81.1128 2.33701 18.8056 -6.58213 -13.3695 -52.8812 22.819 47.1417 -26.8246 -68.8778 2.1313 -44.3842 -21.5857 12.1718 -28.7552 5.21652 26.3156 -38.1047 -30.4482 -21.7443 -17.782 80.2727 7.90927 -12.5226 17.4665 -6.0363 -18.1076 6.1261 0.601197 24.5716 -0.127978 8.44662 5.75982 -8.45614 18.3914 -4.35049 10.4722 -0.599712 10.3205 0.0257745 -0.0869741 8.36839 10.1848 
20.6304 99.5908 9.86158 5.64952 -4.64047 86.5288 4.94658 21.3561 -5.41777 -17.808 -47.3576 8.76695 48.4493 -28.9333 -71.7702 1.30977 -39.2557 -21.5897 -0.999959 -28.009 -3.59936 2.30714 -29.9853 -21.3799 -21.7698 -17.8362 80.4591 5.95693 -11.5996 18.7733 -2.64697 -18.2723 6.40419 0.632166 25.8531 0.177077 15.9449 6.68684 4.6968 19.4403 -5.35487 10.6217 0.355608 5.10923e-05 -0.382738 -4.2636 23.6431 5.84768 
14.6715 99.9049 11.3348 8.59515 -3.51182 91.9733 7.32747 22.6992 -3.77252 -14.4667 -29.8969 -10.6888 46.4988 -25.865 -67.5328 1.7867 -36.9965 -22.9812 -16.0317 -4.87485 -1.70335 -21.5 -18.5845 3.69118 -19.617 -14.4465 68.112 7.12902 -0.763159 21.0588 -1.53845 -18.1868 2.33698 1.26803 34.6583 -0.294231 14.482 7.33478 11.5133 17.9773 -8.65898 8.76874 0.438692 1.75907 -0.676126 -8.20036 26.3892 0.634183 
9.72545 100.079 13.024 10.8316 0.383681 96.3062 6.80966 22.0176 2.72579 -4.6211 -12.467 -37.8807 39.9248 -17.9655 -55.3861 4.51787 -34.6996 -23.8359 -19.6907 17.0774 16.9862 -30.7244 -15.3781 35.128 -14.3969 -9.89049 46.814 9.07553 21.2786 16.6652 -2.40087 -14.3207 1.56417 1.28137 34.1469 -0.705733 4.0334 6.56238 5.42467 12.5757 -9.41507 3.28256 0.343713 3.34187 -0.794365 -10.9478 27.595 -1.25019 
5.2333 99.475 14.7897 12.3818 4.78274 102.16 5.42266 22.9147 11.3085 11.4885 -9.16421 -69.5051 31.3226 -11.1143 -41.7569 8.96502 -32.3479 -20.7591 -8.4258 19.9646 29.4582 -11.426 -16.8993 63.4501 -8.26894 -7.56918 26.5135 2.76594 38.2203 8.16662 -4.98846 -10.4632 2.45186 0.911245 28.1302 -0.482616 2.49487 4.85757 -2.84215 7.65289 -10.791 -1.70743 0.161323 5.58015 -1.01669 -16.4769 28.7874 -1.76113 
0.544322 98.2097 16.171 13.859 8.35875 110.802 6.90861 26.8175 14.2052 23.5992 -21.2275 -93.4277 25.5647 -8.04944 -33.2979 8.87336 -23.5912 -20.8635 -0.282035 -1.20227 37.7529 11.4593 -10.6216 82.2952 -3.55016 -7.28633 11.8286 2.07244 33.7864 2.34587 -8.35122 -7.61055 -0.171741 0.738025 25.6845 -0.414946 2.35282 3.54915 -7.3369 3.20778 -14.6049 -8.4001 -0.573994 15.2143 -1.08636 -21.6158 25.4732 -1.27682 
-3.5897 96.8145 17.2124 11.9412 10.7392 120.017 8.35339 27.412 10.1399 27.4055 -32.319 -108.14 25.2055 -7.89213 -32.7812 7.20373 -19.6115 -24.0533 8.1502 -32.4547 42.0944 1.70649 3.8931 93.0296 -2.25928 -7.41853 7.80834 6.85076 41.721 0.0467472 -12.8566 -10.0939 -3.67727 0.911132 28.293 -0.512701 3.56699 2.60049 -10.5752 -2.4246 -22.7851 -16.8598 -2.914 32.8166 0.0539898 -17.9597 17.0663 -6.35421 
-7.33754 95.4115 18.3607 10.0691 12.0934 126.32 7.05025 27.1316 3.06444 26.0154 -31.1902 -118.45 29.5192 -10.0397 -39.0674 3.2746 -21.2687 -28.3324 35.6848 -50.079 49.1403 -3.15989 20.3796 109.719 -3.51748 -7.28856 11.7267 4.51002 29.5607 6.72711 -16.4284 -13.3849 -6.00243 1.07129 31.136 -0.654241 3.06343 3.75423 -13.7937 -5.26704 -27.3832 -20.6519 -5.46304 47.9128 2.12032 -14.6156 7.17151 -8.75742 
-11.4317 93.506 19.2652 11.2397 12.0407 128.065 8.35103 28.5724 -2.77534 26.5087 -24.2956 -116.784 34.82 -13.5296 -47.1109 -0.163239 -27.4515 -32.6542 48.6134 -49.889 35.7926 -6.4693 33.8571 125.89 -5.92796 -7.27821 19.2022 4.28893 30.7737 8.97041 -15.9562 -14.8778 -3.57966 1.08276 31.4822 -0.675789 2.38282 4.69229 -17.3694 -2.13149 -28.5897 -19.4536 -9.26873 62.2105 5.72165 -11.266 1.15477 -8.8975 
-16.7428 91.3579 20.0047 14.7074 13.7422 125.571 8.65104 31.7062 -6.85932 27.2423 -14.0357 -108.512 36.0108 -14.4606 -48.9848 -3.12507 -30.1957 -34.375 38.8503 -35.0507 7.95188 -8.86582 55.7261 133.215 -10.4554 -8.12073 33.4872 9.15003 39.777 15.5578 -16.366 -14.8757 -0.853624 1.03175 30.8793 -0.584444 3.11395 7.67026 -16.5516 0.543585 -24.2235 -18.5594 -16.2922 73.0075 12.3871 -11.8525 0.680745 -12.7278 
-23.2908 90.2182 20.3456 16.3195 14.5422 121.47 7.20053 33.0772 -9.93321 26.233 -4.32911 -99.0722 30.6536 -10.7027 -40.7542 -2.33554 -30.6853 -30.3532 29.1964 -7.75267 -10.6077 -27.34 52.4288 135.022 -17.0894 -11.825 56.9769 12.2563 35.5274 16.6135 -17.0499 -13.8708 3.34471 0.47654 22.2142 -0.147425 3.79737 12.8309 -15.0994 -0.391505 -19.6507 -18.1471 -21.3044 76.6351 17.3961 -9.23975 5.25259 -19.9685 
-29.921 89.8584 20.92 13.8077 12.0984 114.669 3.41644 30.391 -7.65945 22.9521 1.2731 -88.186 22.1237 -6.69418 -28.387 -0.0793509 -21.8516 -24.6105 21.0756 23.0712 -22.664 -20.8419 50.4001 115.583 -19.6383 -14.4768 68.2304 6.75524 29.2342 14.8832 -15.4876 -16.9043 9.5859 0.134618 9.41237 -0.0385678 0.303329 9.9778 -9.37075 0.168516 -19.2154 -15.0228 -15.8741 72.6497 12.1218 -9.23393 -5.62974 -20.899 
-37.0843 89.128 21.7862 11.3068 8.57263 105.711 -0.677234 29.1596 -4.41239 19.3397 2.1381 -72.136 13.4626 -4.67601 -16.3008 0.872524 -20.1108 -20.1929 10.972 41.1948 -23.4772 -3.57299 44.0831 92.4433 -19.2329 -13.9825 66.2774 3.36783 21.928 15.8937 -11.5923 -24.4889 1.17263 0.0768227 6.53781 -0.0579827 2.30371 2.79766 -5.66528 1.81961 -18.5161 -9.64775 -9.78756 63.5913 6.36652 -9.04535 -21.155 -14.0915 
-45.2415 87.8039 22.9586 11.1853 6.43558 96.1291 -6.14772 33.3447 -1.75774 15.6526 -1.99621 -49.7345 7.24987 -4.36958 -7.73694 4.80727 -26.7328 -13.898 -2.93676 47.3895 -9.22711 3.27887 28.1218 83.3705 -16.1424 -11.0625 53.2587 1.50674 17.311 15.456 -7.93166 -36.5657 -6.20723 0.770432 27.5219 -0.628872 -0.878644 1.7117 -14.0633 5.20066 -23.5343 -1.35469 -9.79675 63.7152 6.6923 -3.37858 -22.306 -6.19478 
-52.8095 86.6794 24.0713 11.2315 2.93571 91.2942 -5.84859 37.2357 1.07403 15.0567 2.95685 -31.1591 3.15669 -4.67456 -2.09504 11.8141 -34.8923 -7.76588 -12.9505 48.1309 0.66782 1.15931 12.1092 77.2742 -10.1092 -8.01407 32.3666 -1.92527 16.9969 12.9059 -1.94848 -43.1935 3.54566 2.25107 50.8226 -1.95085 -0.113782 -0.24581 -8.54006 11.4191 -30.0698 2.83569 -10.758 65.7158 7.6249 -2.63447 -17.2845 -4.3162 
